<svg width="670" height="473" viewBox="0 0 670 473" fill="none" xmlns="http://www.w3.org/2000/svg">
<rect width="669.491" height="472.23" rx="16" fill="#8D8D8D"/>
<path d="M267.942 440.23C267.071 440.23 266.201 440.23 265.33 440.23C263.842 439.513 262.063 439.1 260.926 438.015C258.647 435.841 256.574 433.407 254.693 430.874C253.291 428.985 252.003 426.885 251.241 424.679C250.145 421.505 249.706 418.11 248.749 414.879C246.785 408.257 244.747 401.653 242.562 395.101C241.733 392.617 240.47 390.269 239.283 387.919C238.947 387.253 238.144 386.836 237.624 386.245C236.376 384.828 234.819 383.544 234.024 381.898C232.62 378.994 231.601 375.889 230.588 372.814C229.803 370.433 229.318 367.955 228.62 365.542C228.043 363.544 227.449 361.68 227.461 359.445C227.475 357.132 227.141 354.33 224.917 352.538C224.745 352.399 224.779 352.008 224.71 351.737C224.247 349.948 223.837 348.144 223.302 346.377C222.855 344.899 222.222 343.57 220.449 343.127C220.082 343.035 219.88 342.05 219.716 341.446C219.592 340.994 219.793 340.429 219.609 340.023C218.366 337.287 217.083 334.568 215.764 331.868C214.6 329.483 212.991 327.238 212.278 324.732C211.482 321.933 211.447 318.912 211.129 315.982C210.556 310.698 210.745 305.198 209.277 300.18C207.607 294.469 207.589 288.651 206.575 282.926C206.003 279.698 205.781 276.347 205.917 273.073C206.025 270.454 206.183 267.331 207.616 265.385C210.098 262.013 209.944 258.473 208.641 254.875C208.181 253.603 208.127 252.151 208.071 250.774C208.027 249.674 208.718 248.587 207.583 247.534C207.15 247.132 207.252 246.076 207.235 245.316C207.197 243.587 207.253 241.857 207.227 240.127C207.222 239.839 207.035 239.34 206.867 239.31C206.385 239.225 205.516 239.179 205.427 239.387C204.936 240.533 204.257 241.781 204.327 242.954C204.737 249.766 202.716 252.924 196.266 255.154C194.845 255.646 193.494 256.353 192.055 256.769C189.875 257.399 187.671 258.097 185.432 258.341C181.82 258.735 179.013 256.696 176.661 254.348C172.483 250.179 168.488 245.818 164.572 241.399C162.906 239.518 161.61 237.304 160.192 235.21C159.295 233.887 160.03 232.655 161.013 232.019C161.478 231.718 163.349 232.431 163.431 232.89C163.928 235.665 165.728 233.952 166.946 234.059C167.579 234.114 168.253 233.986 168.876 233.819C170.197 233.464 172 233.418 172.681 232.533C173.587 231.356 174.218 231.061 175.494 231.504C175.852 231.628 176.54 231.588 176.705 231.357C178.027 229.512 179.276 227.613 180.494 225.697C180.623 225.495 180.503 224.925 180.312 224.788C180.123 224.654 179.557 224.733 179.395 224.922C177.346 227.306 174.309 227.474 171.613 228.224C170.034 228.663 167.951 228.734 166.544 228.048C163.415 226.521 160.498 224.514 157.647 222.486C156.722 221.828 156.245 220.517 155.613 219.474C154.48 217.607 154.132 214.925 150.996 215.192C150.678 215.219 150.333 214.929 150 214.787C150 214.496 150 214.206 150 213.916C150.301 213.342 150.743 212.8 150.878 212.189C151.413 209.758 153.023 209.297 155.235 209.416C159.139 209.625 159.12 209.544 159.911 205.669C159.986 205.3 160.61 204.741 160.932 204.772C163.474 205.01 166.011 205.324 168.536 205.709C170.094 205.945 171.743 205.582 173.014 207.243C174.101 208.665 175.744 208.365 177.317 207.455C178.858 206.564 180.508 205.745 182.217 205.293C183.487 204.958 185.19 204.596 185.43 206.978C185.473 207.397 187.347 208.184 187.701 207.915C188.8 207.08 190.639 206.507 190.02 204.414C189.892 203.981 189.944 203.216 190.225 202.986C191.602 201.858 190.636 201.038 190.052 200.05C188.043 196.648 185.609 193.432 185.448 189.204C185.431 188.749 184.335 188.048 183.667 187.95C179.03 187.272 177.131 183.522 179.497 179.536C180.751 177.425 179.766 174.724 177.689 174.975C175.055 175.292 173.985 173.112 172.238 172.06C171.794 171.792 171.616 170.549 171.791 169.879C172.519 167.095 173.182 164.243 176.438 163.085C177.251 162.797 177.916 161.932 178.505 161.213C179.512 159.982 180.436 158.679 181.34 157.368C182.447 155.762 183.879 154.789 185.887 154.938C187.704 155.074 187.726 156.544 188.186 157.865C188.686 159.297 189.897 160.528 191.555 159.528C194.154 157.96 196.922 158.059 199.756 158.048C200.709 158.045 202.038 157.862 202.544 157.235C204.043 155.376 204.78 152.907 207.135 151.722C207.327 151.625 207.242 151.039 207.347 150.699C208.008 148.551 209.121 146.911 211.369 145.972C213.471 145.094 215.793 144.12 217.271 142.504C219.632 139.923 221.742 136.925 222.237 133.279C222.602 130.593 223.854 129.565 226.578 129.733C228.758 129.867 230.429 127.098 230.02 124.885C229.878 124.115 230.217 122.968 230.762 122.411C232.731 120.396 234.91 118.587 236.951 116.641C237.828 115.804 238.614 114.951 238.17 113.432C237.939 112.639 238.494 111.635 238.624 110.715C238.777 109.626 239.315 108.267 238.872 107.487C237.877 105.731 238.707 104.492 239.835 103.792C241.682 102.646 243.152 100.562 245.837 101.038C247.13 101.268 248.05 100.549 248.227 99.1206C248.384 97.8413 248.207 96.8439 246.678 96.5066C245.069 96.1521 243.509 95.3796 241.9 95.288C240.422 95.2046 240.024 94.6742 240.404 93.4765C240.81 92.1944 240.212 91.4627 239.16 91.5643C236.739 91.7991 235.601 89.8941 233.942 88.846C233.29 88.4344 232.572 87.9756 231.838 87.8731C229.792 87.5875 228.584 86.5675 228.491 84.4757C228.437 83.2744 228.705 82.0503 228.58 80.8626C228.148 76.7299 227.509 72.6162 227.175 68.4771C227.091 67.4245 227.588 65.6165 228.268 65.3627C229.594 64.8685 230.608 64.5847 230.846 62.9862C230.901 62.6208 231.704 62.1385 232.189 62.1049C234.109 61.9725 235.322 60.8292 235.293 59.1482C235.279 58.373 233.816 57.4327 232.828 56.9105C231.536 56.2277 230.78 55.4026 231.448 54.0272C232.124 52.6354 231.269 52.8784 230.415 52.4903C228.582 51.6589 226.48 50.7985 225.316 49.3042C224.286 47.9823 223.422 47.4083 221.992 47.7266C220.357 48.0902 219.016 47.6114 218.348 46.2441C217.481 44.4679 218.541 42.4061 220.13 41.3444C221.591 40.3679 223.132 39.2662 224.101 37.8527C225.74 35.4627 227.808 35.187 230.331 35.6286C231.416 35.8181 232.543 35.7755 233.651 35.8389C233.71 35.6612 233.769 35.4835 233.829 35.3058C233.235 34.8225 232.642 34.3393 232.048 33.8569C232.035 33.5731 232.021 33.2893 232.008 33.0055C236.096 35.0202 239.536 33.0073 243.138 32C243.864 32 244.589 32 245.314 32C247.224 32.3872 249.118 32.9085 251.046 33.1143C252.368 33.2558 253.098 33.5314 252.965 35.0356C252.939 35.3248 253.672 36.0049 253.921 35.945C255.873 35.4754 257.301 36.4655 257.738 38.0213C258.858 42.0135 262.804 42.5258 265.427 44.6003C266.498 45.4472 267.561 45.9458 267.643 47.4237C267.739 49.1329 268.682 49.6007 270.325 49.8455C272.019 50.0976 273.691 50.8918 275.204 51.7469C275.716 52.0352 275.713 53.2329 275.945 54.0154C275.86 54.2802 275.775 54.5449 275.689 54.8088C278.729 53.9365 281.759 53.0307 284.81 52.202C287.613 51.4413 289.996 49.1229 293.204 49.8854C294.326 50.152 295.21 50.2236 296.096 49.1437C296.426 48.7421 297.73 48.9234 298.502 49.1447C300.278 49.6542 301.991 50.8284 303.746 50.8619C306.534 50.9154 307.417 53.2556 309.186 54.4978C309.395 54.6446 309.463 55.1905 309.392 55.506C308.858 57.8688 308.471 60.2942 307.638 62.5519C307.007 64.2619 306.993 66.7 304.208 66.8886C303.82 66.9149 303.475 67.692 303.126 68.1344C302.827 68.5134 302.558 69.2415 302.265 69.2469C300.259 69.285 300.537 70.82 300.381 72.0078C300.015 74.8131 298.67 75.8322 295.862 75.3317C293.601 74.9292 293.36 75.2592 293.992 77.5812C294.344 78.8724 295.543 80.1436 293.493 81.4157C292.405 82.0902 293.634 84.4803 295.242 84.9336C295.936 85.1286 296.73 85.0669 297.353 85.3761C297.823 85.6091 298.492 86.5094 298.389 86.6645C296.973 88.8179 298.597 90.1344 299.608 91.6522C300.328 92.733 300.846 93.7811 299.248 94.7214C297.647 95.6634 295.915 96.5846 294.698 97.9292C293.056 99.7454 292.004 98.835 290.857 97.6282C290.429 97.1767 290.286 96.4604 289.875 95.9835C289.565 95.6235 288.932 95.1575 288.627 95.2636C288.136 95.4349 287.387 96.1376 287.46 96.4477C288.003 98.7589 288.742 101.024 289.38 103.314C289.936 105.306 290.536 107.294 290.93 109.32C291.151 110.456 290.996 111.666 291.017 113.388C293.813 110.824 294.885 111.079 296.094 113.851C296.324 114.376 296.512 114.966 296.885 115.371C298.141 116.734 298.888 119.053 301.599 117.857C301.998 117.682 302.823 118.389 303.411 118.751C304.01 119.119 304.627 119.499 305.118 119.994C306.018 120.901 306.839 121.888 307.677 122.855C308.027 123.26 308.33 124.057 308.668 124.066C311.807 124.135 313.765 126.444 316.131 127.932C317.143 128.569 317.94 129.156 316.341 130.676C314.138 132.77 310.737 134.27 310.872 138.189C310.883 138.501 310.276 138.797 310.071 139.165C309.796 139.658 309.303 140.394 309.477 140.713C310.436 142.467 309.329 143.609 308.494 144.881C307.94 145.725 307.533 146.674 306.923 147.471C306.196 148.42 306.281 148.99 307.226 149.799C308.213 150.645 308.979 151.471 310.416 150.746C310.74 150.582 311.379 150.838 311.782 151.063C313.976 152.284 316.164 153.519 318.305 154.83C319.004 155.258 319.507 155.994 320.179 156.477C322.57 158.196 324.802 160.594 327.475 161.304C329.287 161.786 331.183 162.218 332.838 163.048C334.096 163.677 335.093 164.415 336.621 163.963C337.028 163.842 338.112 164.564 338.186 165.013C338.47 166.76 339.874 166.73 341.036 167.147C342.264 167.589 343.474 168.09 344.717 168.487C345.054 168.595 345.672 168.568 345.838 168.353C347.043 166.787 348.482 167.357 349.99 167.684C350.963 167.895 352.017 167.872 353.018 167.779C354.295 167.66 355.617 167.015 356.807 167.227C358.554 167.537 360.213 168.377 361.882 169.058C362.233 169.202 362.754 169.679 362.713 169.922C362.189 173.052 363.966 174.046 366.622 174.324C366.869 174.351 367.073 174.678 367.324 174.817C369.32 175.917 371.053 178.058 373.668 175.568C374.724 174.564 376.04 175.136 375.989 176.994C375.952 178.302 376.545 179.357 377.884 178.83C380.97 177.615 383.822 178.378 386.484 179.73C388.318 180.661 389.651 180.771 391.086 179.241C391.853 178.424 392.479 178.19 393.102 179.645C393.408 180.358 394.789 181.122 395.569 181.016C397.315 180.78 401.542 180.09 403.253 180.191C403.497 180.205 403.811 179.903 404.006 179.674C404.441 179.164 404.92 178.655 405.204 178.061C405.706 177.008 406.419 176.064 405.597 174.686C403.994 171.997 402.712 169.13 403.625 165.857C404.101 164.156 405.397 162.357 405.103 160.838C404.583 158.153 406.336 158.08 407.819 157.42C408.608 157.069 409.359 156.618 410.173 156.346C410.719 156.163 411.392 156.046 411.926 156.195C414.295 156.857 415.43 159.69 414.367 162.535C413.794 164.068 413.43 165.384 414.79 166.712C415.057 166.973 414.779 167.764 414.805 168.308C414.861 169.446 414.517 171.059 415.125 171.615C416.242 172.636 417.895 173.132 419.392 173.656C420.329 173.984 421.532 173.693 422.369 174.142C426.071 176.124 429.408 174.431 432.35 172.746C434.014 171.793 435.037 171.668 436.6 172.325C437.76 172.813 439.054 173.323 440.268 173.276C443.825 173.138 447.38 172.802 450.916 172.379C452.081 172.239 453.157 171.411 454.326 171.224C455.968 170.962 455.735 169.968 454.997 169.337C453.774 168.29 453.912 167.394 454.494 166.112C455.146 164.672 454.268 163.8 452.66 164.115C452.377 164.17 452.043 164.393 451.826 164.305C450.841 163.906 449.537 163.661 449.024 162.903C448.484 162.103 448.441 160.707 448.723 159.728C448.85 159.286 450.28 159.156 451.14 159.006C451.953 158.864 452.833 159.017 453.616 158.797C455.16 158.365 456.727 157.904 458.151 157.19C459.253 156.637 461.095 155.447 460.972 154.944C460.518 153.098 461.556 152.462 462.685 151.693C464.552 150.422 466.428 149.222 466.494 146.539C466.506 146.047 467.44 145.258 468.045 145.152C472.449 144.375 475.311 141.612 477.933 138.234C479.234 136.559 481.086 135.168 482.964 134.162C483.632 133.803 485.095 135.016 486.232 135.404C486.757 135.583 487.378 135.464 487.944 135.554C488.996 135.723 490.122 135.763 491.066 136.191C492.567 136.871 492.933 136.161 493.853 135.058C495.547 133.031 497.759 131.402 499.933 129.856C500.184 129.677 501.533 131.111 502.424 131.723C502.757 131.951 503.444 131.84 503.603 132.103C503.882 132.567 504.107 133.286 503.936 133.741C503.706 134.357 503.081 134.823 502.624 135.355C502.688 135.529 502.751 135.702 502.815 135.876C504.866 134.424 506.395 134.461 507.076 137.011C507.125 137.195 507.339 137.366 507.516 137.481C508.628 138.203 508.288 138.878 507.666 139.808C506.779 141.135 506.13 142.621 505.379 144.039C505.552 144.155 505.724 144.271 505.897 144.388C507.427 142.966 509.007 141.94 511.081 143.357C511.373 143.557 511.924 143.332 512.341 143.4C514.284 143.717 516.615 142.541 518.048 144.838C518.557 145.652 519.012 146.5 519.491 147.332C519.491 148.348 519.491 149.363 519.491 150.379C517.068 149.937 516.423 152.165 515.13 153.359C513.933 154.463 513.978 155.757 515.124 156.988C515.962 157.89 516.813 158.795 517.511 159.801C517.759 160.16 517.725 160.897 517.519 161.314C517.407 161.54 516.546 161.655 516.228 161.469C515.286 160.919 514.458 160.179 513.562 159.545C513.162 159.262 512.594 158.755 512.294 158.866C509.684 159.839 506.993 160.709 504.587 162.07C503.196 162.858 502.371 164.588 501.14 165.733C499.282 167.462 497.259 169.01 495.374 170.711C494.32 171.662 492.979 172.711 493.979 174.369C495.385 176.698 494.755 178.697 493.454 180.786C492.865 181.733 492.247 182.924 492.314 183.96C492.438 185.895 491.94 187.107 490.123 187.943C488.945 188.484 488.814 190.401 489.705 191.067C491.912 192.718 492.127 193.911 490.721 196.211C488.446 199.933 486.545 203.789 486.008 208.219C485.708 210.689 485.312 210.807 483.141 209.717C482.821 209.557 482.454 209.383 482.113 209.39C480.147 209.429 478.18 209.594 476.214 209.572C474.58 209.554 474.855 210.111 475.411 211.216C477.135 214.644 477.511 218.255 476.376 221.95C476.045 223.027 475.751 224.261 474.15 224.174C473.93 224.162 473.46 224.607 473.492 224.757C473.939 226.829 474.597 228.866 474.897 230.955C475.076 232.208 474.985 233.641 474.526 234.799C474.149 235.752 472.914 236.329 472.306 237.237C471.453 238.51 470.758 238.586 469.809 237.406C469.543 237.073 468.857 236.602 468.751 236.685C466.261 238.654 466.457 236.019 466.349 235.068C465.955 231.622 464.882 228.463 463.262 225.419C462.737 224.433 462.587 223.223 462.389 222.094C462.022 219.989 461.793 217.859 461.377 215.766C461.318 215.47 460.457 215.049 460.088 215.146C457.694 215.776 455.551 219.196 456.255 221.52C456.798 223.314 455.966 224.408 454.973 225.605C454.229 226.503 453.558 226.552 452.911 225.568C452.23 224.531 451.596 223.462 450.945 222.414C450.945 222.569 450.98 222.778 450.938 222.971C450.755 223.831 450.55 224.685 450.353 225.542C449.857 224.777 449.219 224.069 448.894 223.239C448.114 221.247 447.549 219.172 446.769 217.181C446.181 215.681 447.462 210.656 448.81 209.774C449.044 209.622 449.335 209.557 449.601 209.455C451.628 208.687 453.991 208.341 455.605 207.054C457.983 205.16 460.557 202.985 459.828 199.213C459.792 199.029 460.477 198.536 460.866 198.485C461.326 198.424 461.828 198.688 462.58 198.879C460.35 195.816 457.884 194.973 454.616 195.92C453.996 196.1 453.36 196.365 452.734 196.362C447.412 196.333 442.086 196.374 436.774 196.128C434.577 196.025 432.423 194.988 430.228 194.896C428.014 194.804 427.56 193.788 427.493 191.915C427.403 189.414 427.157 186.914 426.889 184.424C426.837 183.933 426.383 183.485 426.115 183.018C425.702 183.39 425.098 183.683 424.908 184.146C424.063 186.214 422.574 186.025 420.991 185.328C419.439 184.644 418.04 183.799 417.899 181.772C417.862 181.248 417.198 180.768 416.821 180.269C416.967 181.525 418.819 183.005 415.699 182.89C415.105 182.868 414.473 183.899 413.531 184.735C413.323 183.652 413.331 182.6 412.89 181.793C412.593 181.249 411.661 181.052 411.014 180.699C409.99 182.965 407.172 184.013 406.944 186.868C406.852 188.014 406.783 188.663 408.15 189.129C409.18 189.481 409.96 190.579 410.837 191.359C411.257 191.732 411.655 192.484 412.047 192.473C413.954 192.421 415.595 192.876 416.876 194.342C417.203 194.717 417.741 195.131 417.744 195.529C417.756 197.567 416.157 197.5 414.802 197.482C413.1 197.46 411.781 197.471 411.384 199.734C411.218 200.68 410.622 202.902 408.432 201.583C408.341 201.529 407.956 201.82 407.812 202.024C406.411 203.999 406.764 205.854 408.923 207.122C410.158 207.848 411.496 208.487 412.868 208.869C416.177 209.792 417.131 212.94 414.793 215.563C413.348 217.185 413.308 218.31 415.032 219.389C416.362 220.222 416.931 220.988 416.23 222.503C415.875 223.272 415.91 223.91 417.141 223.763C419.059 223.533 419.863 224.089 418.455 225.954C418.265 226.207 418.201 226.672 418.278 226.991C418.788 229.112 419.409 231.207 419.885 233.335C420.436 235.802 421.027 238.277 421.311 240.781C421.511 242.54 420.599 244.405 421.906 246.098C422.008 246.23 421.228 247.041 420.858 247.536C419.227 246.071 418.622 247.768 417.658 248.828C417.14 247.653 416.824 246.125 415.364 247.922C415.109 248.237 413.465 247.904 412.963 247.386C412.571 246.98 412.924 245.821 413.006 245.002C413.041 244.657 413.227 244.327 413.345 243.991C412.922 244.066 412.348 243.994 412.101 244.243C411.107 245.253 410.739 244.812 410.356 243.724C409.736 241.966 408.754 242.247 407.748 243.416C407.137 244.126 406.659 244.974 405.968 245.587C404.397 246.98 402.741 248.277 401.088 249.573C400.92 249.704 400.526 249.586 400.248 249.532C397.479 248.988 395.931 250.847 394.5 252.643C393.204 254.267 393.706 256.061 394.667 257.733C394.956 258.235 395.132 258.841 395.524 259.239C396.81 260.545 396.087 261.567 395.116 262.521C394.607 263.021 393.877 263.303 393.396 263.822C393.035 264.212 392.625 264.898 392.736 265.32C393.126 266.79 392.38 267.424 391.26 268.054C390.147 268.68 388.632 269.268 388.185 270.27C387.033 272.857 384.838 273.348 382.547 274.132C376.876 276.074 371.203 278.058 367.998 283.819C367.102 285.429 365.795 286.827 364.574 288.234C362.742 290.347 360.469 292.168 359.042 294.515C357.79 296.575 356.083 297.647 354.226 298.892C351.638 300.627 348.555 301.889 347.331 305.241C347.024 306.08 346.001 307.025 345.139 307.234C341.354 308.149 338.847 310.989 335.859 313.09C335.422 313.397 335.116 314.33 335.219 314.884C335.515 316.474 334.458 320.426 333.291 321.083C331.781 321.931 330.282 322.872 328.658 323.416C327.688 323.742 326.475 323.257 325.396 323.371C323.908 323.528 321.912 323.408 321.082 324.295C319.478 326.01 318.638 328.415 317.265 330.383C316.791 331.063 315.709 331.431 314.831 331.655C314.529 331.732 313.763 331.008 313.627 330.53C313.196 329.013 312.386 329.417 311.298 329.718C308.356 330.531 307.181 333.026 306.111 335.364C305.152 337.458 304.101 339.692 304.982 342.253C306.035 345.317 307.185 348.444 305.461 351.69C305.345 351.911 305.449 352.262 305.482 352.548C305.919 356.331 305.886 360.251 306.927 363.86C308.127 368.022 306.2 371.506 305.546 375.247C305.25 376.938 304.272 378.729 303.095 380.007C300.176 383.177 299.72 387.005 299.874 390.913C300.071 395.887 300.752 400.841 301.089 405.812C301.305 408.992 301.172 409.033 297.921 408.906C297.13 408.875 296.34 408.763 295.555 408.657C293.315 408.354 292.555 409.015 292.42 411.332C292.393 411.791 292.29 412.313 292.037 412.679C291.01 414.162 289.753 415.509 288.891 417.077C288.284 418.179 287.515 420.165 287.99 420.681C288.875 421.645 290.65 422.317 291.984 422.211C293.749 422.073 293.844 422.876 294.101 424.143C292.621 423.878 291.301 423.621 289.974 423.407C286.246 422.805 283.135 424.964 279.768 425.877C278.068 426.338 276.764 427.686 276.669 430.209C276.555 433.194 275.843 436.388 272.015 437.498C270.52 437.932 269.292 439.292 267.942 440.23Z" stroke="#EFEEEE" stroke-miterlimit="10"/>
<circle cx="232.056" cy="261.846" r="47.6014" fill="#8DC83A" fill-opacity="0.25"/>
<circle cx="246.109" cy="333.022" r="40.8012" fill="#8DC83A" fill-opacity="0.25"/>
<circle cx="238.856" cy="173.444" r="40.8012" fill="#8DC83A" fill-opacity="0.25"/>
<circle cx="302.324" cy="276.807" r="32.6409" fill="#8DC83A" fill-opacity="0.25"/>
<circle cx="244.296" cy="103.629" r="25.3874" fill="#8DC83A" fill-opacity="0.25"/>
<circle cx="279.657" cy="118.136" r="25.3874" fill="#8DC83A" fill-opacity="0.25"/>
<circle cx="179.921" cy="228.752" r="25.3874" fill="#8DC83A" fill-opacity="0.25"/>
<circle cx="295.071" cy="399.211" r="25.3874" fill="#8DC83A" fill-opacity="0.25"/>
<circle cx="244.296" cy="103.629" r="7.25354" fill="#8DC83A"/>
<circle cx="238.856" cy="173.444" r="7.25354" fill="#8DC83A"/>
<circle cx="302.324" cy="276.807" r="7.25354" fill="#8DC83A"/>
<circle cx="246.109" cy="333.022" r="7.25354" fill="#8DC83A"/>
<circle cx="295.071" cy="399.211" r="7.25354" fill="#8DC83A"/>
<circle cx="179.921" cy="228.752" r="7.25354" fill="#8DC83A"/>
<circle cx="232.509" cy="262.3" r="7.25354" fill="#8DC83A"/>
<circle cx="279.657" cy="118.136" r="7.25354" fill="#8DC83A"/>
</svg>
